<?xml version="1.0" encoding="UTF-8"?>
<svg id="Layer_1" data-name="Layer 1" xmlns="http://www.w3.org/2000/svg" viewBox="0 0 200 200">
  <defs>
    <style>
      .cls-1 {
        fill: #bd0029;
      }

      .cls-2 {
        fill: #5b0219;
      }
    </style>
  </defs>
  <path class="cls-2" d="m148.47,182.84c-1.58,2.37-10.72,8.79-15.74,11.02,0,0-.02,0-.03.01-.64.28-1.21.5-1.69.62-8.97,3.2-18.57,4.96-28.57,5,.12,0,.25,0,.37,0,28.64,0,54.45-12.1,72.6-31.47,8.19-7.06,20.34-21.78,18.56-23.56-1.59-1.59-9.03,4.34-10.68,5.68-.06.04-.12-.02-.09-.08,12.56-18.58,13.15-34.16,13.44-35.94.3-2.97-2.08-2.97-2.08-.89-.22,3.06-1.4,7.41-2.01,9.5-.04.12-.22.08-.21-.04.78-6.98-1.43-6.18-2.84-6.18-1.49,0-2.97.3-2.38-1.78,1.49-5.95,0-16.06-2.68-17.25-2.68-1.19-2.68,2.68-2.68,2.68-1.19,42.53-32.36,75.08-73.17,77.04-3.14.08-6.09.05-8.86-.09,2.91.31,6.09.88,5.59,1.87-.89,1.78-7.44,2.54-5.95,3.8,1.49,1.26,17.85,3.93,35.39.07,17.55-3.87,15.47-2.68,13.68,0Z"/>
  <path class="cls-1" d="m57.86,149.62c.4.4.74.76,1.04,1.09"/>
  <path class="cls-1" d="m12.54,105.8c0,48.41,35.09,88.25,80.1,93.18.01,0,.03,0,.05,0,.2.02.4.04.6.06,3.01.29,6.05.44,9.13.45h.02c10-.04,19.6-1.8,28.57-5,.57-.2,1.13-.41,1.69-.62,0,0,.02,0,.03-.01,5.02-2.22,14.16-8.65,15.74-11.02,1.78-2.68,3.87-3.87-13.68,0-17.55,3.87-33.91,1.19-35.39-.07-1.49-1.26,5.06-2.02,5.95-3.8.5-1-2.68-1.56-5.59-1.87-1.47-.07-2.89-.17-4.27-.31-.02,0-.03,0-.05,0-.01,0-.03,0-.04,0h-.02s-.04,0-.04,0c-22.66-2.21-32.47-12.16-40.03-23.46-.31-.46.2-1.02.68-.77,1.24.64,2.5,1.26,3.8,1.79.39.16.82.4,1.08-.04.61-1.04-1.41-2.98-1.96-3.58-.35-.36-.7-.72-1.04-1.09-.01-.01-.03-.03-.04-.04-9.46-10.15-15.24-23.76-15.24-38.72,0-31.38,25.43-56.81,56.81-56.81,25.26,0,46.66,16.48,54.05,39.28,1.15,2.44,3.25,13.96,3.98,18.11.03.17.28.15.28-.03-.06-10.01-3.29-20.78-3.29-20.78l1.78,2.57c.29.41.93.18.9-.32-.51-7.28-7.67-14.81-6.84-15.64.54-.54,1.86.23,2.8.93.33.24.77-.1.62-.48-3.24-8.75-13.02-17.07-16.64-19.93-.28-.22-.03-.67.31-.54,8.21,3.21,17.41,17.07,20.14,21.4.31.48,1.06.32,1.12-.25.84-7.33-7.47-15.17-7.67-16-.17-.73,1.46-.27,2.07-.07.06.02.1-.06.06-.1-20.24-20.7-44.58-30.01-75.3-21.63-.24.07-.36-.28-.13-.37,33.76-13.5,60.88-3.62,84.74,17.73.07.06.16-.03.1-.1-5.84-6.56-11.86-12.61-18.44-17.05-.23-.15-.14-.51.14-.53.56-.04,1.45-.04,2.81.11,2.68.3-9.22-6.25-18.14-8.92-1.49-.3-.89-1.49.59-1.78.89-.18,2.11-.36,3.06-.86-.06-.02-.09-.03-.09-.03-4.74-4.05-17.39-5.63-32.56-6.43-.25-.01-.26-.38-.01-.41,5.59-.62,20.94-1.58,37.04,3.86,0,0-1.49-6.25-16.66-9.22-7.11-1.19-4.48-1.78-2.11-2.96-5.21-.98-10.56-1.5-16.04-1.5C52.62,12.11,12.54,54.06,12.54,105.8Z"/>
  <path class="cls-2" d="m3.34,101.73c.87,50.73,39.7,92.2,89.3,97.24-45.01-4.93-80.1-44.76-80.1-93.18,0-51.74,40.08-93.69,89.53-93.69,5.14,0,10.18.45,15.08,1.32.3.05.35.47.07.59-2,.92-3.23,1.51,2.99,2.54,12.76,2.5,15.84,7.32,16.49,8.78.08.17-.09.35-.27.29-15.94-5.28-31.07-4.33-36.61-3.72-.25.03-.23.39.01.41,15.17.8,27.82,2.38,32.56,6.43,0,0,.03.01.09.03,1.06.38,11.31,4.15,18.35,9.78,2.08,1.78,4.76,1.78,2.38-2.68-2.38-4.46-4.16-5.65-3.87-6.54.3-.89,2.68.59,3.57.3s1.01-1.79-2.38-4.16c-2.97-2.08-20.82-10.71-30.08-12.87-.12-.03-.08-.21.04-.19,6.25,1.03,25.08,4.74,36.46,13.47.58.44,1.91,1.68,2.72,1.26,1.48-.76-.4-3.64-1.01-4.38-3.37-4.07-8.21-6.93-13.04-8.92-.73-.3-6.21-2.22-5.22-3.55.35-.47.95-.73,1.54-.87.44-.11.49-.73.07-.91C129.94,3.34,116.58.47,102.56.51,46.88.65,2.38,46.06,3.34,101.73Z"/>
  <line class="cls-1" x1="118.11" y1="13.61" x2="118.13" y2="13.6"/>
  <path class="cls-1" d="m93.29,199.04c2.89.3,5.82.45,8.78.45.12,0,.23,0,.35,0,0,0,.01,0,.02,0"/>
  <path class="cls-1" d="m99.75,177.1c-2-.21-3.87-.3-4.32-.32"/>
</svg>